<?xml version="1.0" encoding="UTF-8"?>
<!-- Generator: Adobe Illustrator 25.2.1, SVG Export Plug-In . SVG Version: 6.00 Build 0)  -->
<svg version="1.1" id="Layer_1" xmlns="http://www.w3.org/2000/svg" xmlns:xlink="http://www.w3.org/1999/xlink" x="0px" y="0px" viewBox="0 0 79.22 60.57" style="enable-background:new 0 0 79.22 60.57;" xml:space="preserve">
<style type="text/css">
	.st0{fill:#383838;}
	.st1{fill:#565556;}
	.st2{fill:#515151;}
	.st3{clip-path:url(#SVGID_2_);fill:url(#SVGID_3_);}
	.st4{clip-path:url(#SVGID_2_);fill:url(#SVGID_4_);}
	.st5{clip-path:url(#SVGID_2_);fill:url(#SVGID_5_);}
	.st6{clip-path:url(#SVGID_7_);fill:#D7D0DA;}
	.st7{clip-path:url(#SVGID_9_);}
	.st8{fill:#D7D0DA;}
	.st9{clip-path:url(#SVGID_11_);fill:url(#SVGID_12_);}
	.st10{fill:#FFFFFF;}
	.st11{fill:#2D2D2D;}
	.st12{fill:#3A3A3A;}
	.st13{fill:#3F3F3F;}
	.st14{fill:#333333;}
	.st15{display:none;}
	.st16{display:inline;fill:#DD00D3;}
	.st17{fill:#444444;}
	.st18{fill:#282828;}
</style>
<g>
	<path class="st0" d="M46.88,7.19c14.16,2.34,28.52,6.71,32.16,15.63c0.86,2.11,0.3,9.14,0.31,11.39c0.01,1.82-0.26,3.67-0.85,5.53   c-4.68,14.65-26.92,23.8-49.13,19.72C11.61,56.2,0.48,45.65,0.51,34.36c0.01-2.61-0.73-9.71,0.52-12.32   C7.35,8.88,26.93,3.9,46.88,7.19z"/>
	<path class="st1" d="M78.27,32.85c-6.06,14.47-29.2,22.67-50.98,17.64C5.91,45.56-4.4,30.09,3.51,16.53   C11,3.68,32.46-3.02,52.07,1.04C72.02,5.17,84.01,19.16,78.27,32.85z"/>
	<path class="st2" d="M77.9,32.87c0,0-0.23,0.49-0.66,1.41c-0.46,0.84-1.13,2.08-2.08,3.31c-0.94,1.25-2.13,2.59-3.54,3.86   c-1.41,1.27-3.03,2.48-4.83,3.59c-3.59,2.23-7.87,4.03-12.48,5.24c-4.61,1.22-9.57,1.84-14.52,1.82c-2.48-0.02-4.95-0.19-7.39-0.52   c-2.43-0.33-4.83-0.78-7.13-1.42c-2.31-0.62-4.53-1.35-6.62-2.26c-2.09-0.9-4.06-1.88-5.86-3.03c-1.79-1.15-3.42-2.33-4.82-3.65   c-1.4-1.32-2.6-2.6-3.53-3.92c-0.24-0.3-0.45-0.62-0.65-0.95c-0.2-0.31-0.39-0.61-0.56-0.88c-0.33-0.61-0.61-1.13-0.84-1.56   c-0.42-0.95-0.64-1.45-0.64-1.45s0.22,0.5,0.64,1.45c0.22,0.43,0.51,0.95,0.84,1.55c0.18,0.27,0.36,0.56,0.57,0.88   c0.2,0.32,0.42,0.64,0.65,0.94c0.93,1.32,2.13,2.59,3.53,3.9c1.4,1.31,3.03,2.48,4.82,3.62c7.18,4.49,17.09,7.06,26.99,7.07   c4.95,0.04,9.9-0.55,14.52-1.74c4.61-1.18,8.89-2.96,12.48-5.16c1.8-1.1,3.42-2.3,4.83-3.56c1.41-1.26,2.6-2.59,3.54-3.84   c0.95-1.22,1.63-2.46,2.08-3.29C77.67,33.36,77.9,32.87,77.9,32.87z"/>
	<g>
		<defs>
			<path id="SVGID_1_" d="M79.1,23.09c0.53,3.18,0.18,6.49-1.2,9.78c-6.06,14.47-29.2,22.67-50.98,17.64     C9.95,46.59-0.04,36.03,0.51,25.06C0,31.65,0.49,32.22,0.49,34.36C0.46,45.65,11.58,56.2,29.35,59.47     c22.21,4.08,44.45-5.07,49.13-19.72c0.59-1.86,0.87-3.71,0.85-5.53C79.32,32.04,79.84,26.27,79.1,23.09z"/>
		</defs>
		<clipPath id="SVGID_2_">
			<use xlink:href="#SVGID_1_" style="overflow:visible;"/>
		</clipPath>
		<linearGradient id="SVGID_3_" gradientUnits="userSpaceOnUse" x1="39.9049" y1="76.7967" x2="39.9049" y2="47.0937">
			<stop offset="0" style="stop-color:#A081A2"/>
			<stop offset="0.3815" style="stop-color:#A792A9"/>
			<stop offset="1" style="stop-color:#B0ABB4"/>
		</linearGradient>
		<rect x="33" y="47.09" class="st3" width="13.81" height="29.7"/>
		<linearGradient id="SVGID_4_" gradientUnits="userSpaceOnUse" x1="5.4126" y1="64.7846" x2="5.4126" y2="32.6111">
			<stop offset="0" style="stop-color:#A081A2"/>
			<stop offset="0.3815" style="stop-color:#A792A9"/>
			<stop offset="1" style="stop-color:#B0ABB4"/>
		</linearGradient>
		<rect x="2.33" y="32.61" class="st4" width="6.17" height="32.17"/>
		<linearGradient id="SVGID_5_" gradientUnits="userSpaceOnUse" x1="74.3811" y1="66.814" x2="74.3811" y2="32.9859">
			<stop offset="0" style="stop-color:#A081A2"/>
			<stop offset="0.3815" style="stop-color:#A792A9"/>
			<stop offset="1" style="stop-color:#B0ABB4"/>
		</linearGradient>
		<rect x="71.29" y="32.99" class="st5" width="6.18" height="33.83"/>
	</g>
	<g>
		<defs>
			<path id="SVGID_6_" d="M68.11,24.6c0.58,10.5-12.03,19.33-28.2,19.33c-16.17,0-28.78-8.83-28.2-19.33     c0.56-10.08,13.18-17.97,28.2-17.97C54.93,6.63,67.55,14.52,68.11,24.6z"/>
		</defs>
		<clipPath id="SVGID_7_">
			<use xlink:href="#SVGID_6_" style="overflow:visible;"/>
		</clipPath>
		<polygon class="st6" points="71.16,22.59 51.25,22.59 68.13,16.12 64.96,12.77 48.15,19.15 57.65,8.2 52.49,6.33 42.92,17.19     42.84,4.69 36.98,4.69 36.9,17.19 27.33,6.33 22.17,8.2 31.67,19.15 14.86,12.77 11.69,16.12 28.57,22.59 8.66,22.59 8.41,26.62     28.48,26.62 10.72,33.37 13.63,37 31.49,30.16 20.95,42.12 26.36,44.29 36.81,32.23 36.73,46.2 43.09,46.2 43.01,32.23     53.46,44.29 58.87,42.12 48.33,30.16 66.18,37 69.1,33.37 51.34,26.62 71.41,26.62   "/>
	</g>
	<g>
		<defs>
			<path id="SVGID_8_" d="M77.9,32.87c-6.06,14.47-29.2,22.67-50.98,17.64C5.54,45.57-4.77,30.1,3.13,16.54     C10.63,3.69,32.08-3.01,51.7,1.05C71.65,5.19,83.64,19.17,77.9,32.87z"/>
		</defs>
		<clipPath id="SVGID_9_">
			<use xlink:href="#SVGID_8_" style="overflow:visible;"/>
		</clipPath>
		<g class="st7">
			<path class="st8" d="M39.91,5.2c2.17,0,5.63,0.36,5.63,0.36c0.37,0.04,0.68-0.13,0.68-0.37l-0.09-6.82     c0-0.23-0.31-0.45-0.68-0.47c0,0-3.43-0.25-5.54-0.25c-2.11,0-5.54,0.25-5.54,0.25C34-2.07,33.69-1.86,33.69-1.63L33.6,5.2     c0,0.24,0.3,0.41,0.68,0.37C34.28,5.56,37.74,5.2,39.91,5.2z"/>
			<path class="st8" d="M39.91,45.6c-2.34,0-6.09-0.42-6.09-0.42c-0.4-0.05-0.74,0.15-0.74,0.43l-0.11,8.24     c0,0.29,0.33,0.56,0.75,0.59c0,0,3.83,0.31,6.19,0.31c2.36,0,6.19-0.31,6.19-0.31c0.41-0.03,0.75-0.3,0.75-0.59l-0.11-8.24     c0-0.28-0.34-0.48-0.74-0.43C46,45.17,42.25,45.6,39.91,45.6z"/>
			<path class="st8" d="M13.98,14.71c1.17-1.24,3.51-3.01,3.51-3.01c0.25-0.19,0.19-0.45-0.14-0.57L8.03,7.61     C7.71,7.49,7.25,7.55,7.01,7.74c0,0-2.22,1.81-3.39,3.02c-1.18,1.21-2.75,3.32-2.75,3.32c-0.17,0.23-0.05,0.52,0.28,0.64     l9.4,3.62c0.33,0.13,0.72,0.04,0.87-0.2C11.42,18.14,12.81,15.95,13.98,14.71z"/>
			<path class="st8" d="M66.89,34.89c-1.08,1.34-3.36,3.3-3.36,3.3c-0.25,0.21-0.16,0.5,0.2,0.64l10.34,3.98     c0.36,0.14,0.85,0.07,1.07-0.15c0,0,2.1-2.06,3.15-3.42c1.05-1.35,2.35-3.66,2.35-3.66c0.14-0.25-0.04-0.56-0.4-0.7l-10.23-3.86     c-0.35-0.13-0.75-0.04-0.87,0.21C69.14,31.23,67.96,33.55,66.89,34.89z"/>
			<path class="st8" d="M12.93,34.89c-1.08-1.34-2.25-3.66-2.25-3.66c-0.13-0.25-0.52-0.34-0.87-0.21l-10.23,3.86     c-0.36,0.14-0.54,0.45-0.4,0.7c0,0,1.31,2.31,2.35,3.66c1.05,1.35,3.15,3.42,3.15,3.42c0.23,0.22,0.71,0.29,1.07,0.15l10.34-3.98     c0.36-0.14,0.45-0.42,0.2-0.64C16.29,38.19,14.01,36.23,12.93,34.89z"/>
			<path class="st8" d="M65.84,14.71c1.17,1.24,2.56,3.43,2.56,3.43c0.15,0.24,0.54,0.33,0.87,0.2l9.4-3.62     c0.32-0.13,0.45-0.41,0.28-0.64c0,0-1.58-2.11-2.75-3.32c-1.17-1.2-3.39-3.02-3.39-3.02c-0.24-0.2-0.7-0.26-1.02-0.13l-9.32,3.52     c-0.33,0.12-0.39,0.38-0.14,0.57C62.33,11.7,64.67,13.48,65.84,14.71z"/>
		</g>
	</g>
	<g>
		<defs>
			<path id="SVGID_10_" d="M68.11,24.6c0.58,10.5-12.03,19.33-28.2,19.33c-16.17,0-28.78-8.83-28.2-19.33     c0.56-10.08,13.18-17.97,28.2-17.97C54.93,6.63,67.55,14.52,68.11,24.6z"/>
		</defs>
		<clipPath id="SVGID_11_">
			<use xlink:href="#SVGID_10_" style="overflow:visible;"/>
		</clipPath>
		
			<radialGradient id="SVGID_12_" cx="30.8728" cy="-422.6728" r="30.8445" gradientTransform="matrix(0.9225 0 0 0.6179 11.4077 286.3981)" gradientUnits="userSpaceOnUse">
			<stop offset="0.871" style="stop-color:#FFFFFF"/>
			<stop offset="0.9195" style="stop-color:#FDFDFD"/>
			<stop offset="0.937" style="stop-color:#F6F6F6"/>
			<stop offset="0.9494" style="stop-color:#EBEBEB"/>
			<stop offset="0.9595" style="stop-color:#DADADA"/>
			<stop offset="0.9681" style="stop-color:#C4C4C4"/>
			<stop offset="0.9758" style="stop-color:#A8A8A8"/>
			<stop offset="0.9827" style="stop-color:#888888"/>
			<stop offset="0.989" style="stop-color:#626262"/>
			<stop offset="0.9947" style="stop-color:#393939"/>
			<stop offset="1" style="stop-color:#0B0B0B"/>
		</radialGradient>
		<ellipse class="st9" cx="39.89" cy="25.23" rx="28.45" ry="19.06"/>
	</g>
	<path class="st10" d="M65.53,30.23c-4.27,9.58-19.69,14.93-34.14,11.65c-14.27-3.23-21.43-13.5-16.33-22.67   C19.99,10.37,34.65,5.71,48.1,8.54C61.72,11.41,69.65,21,65.53,30.23z"/>
	<g>
		<path class="st11" d="M62.52,34.43c0,0-0.12,0.12-0.34,0.35c-0.22,0.23-0.56,0.56-1.01,0.97c-0.24,0.2-0.48,0.43-0.79,0.67    c-0.15,0.12-0.3,0.24-0.46,0.37c-0.17,0.12-0.34,0.25-0.52,0.38c-0.73,0.52-1.6,1.09-2.63,1.65c-1.03,0.56-2.21,1.11-3.53,1.62    c-1.32,0.51-2.79,0.98-4.37,1.35c-1.58,0.37-3.26,0.66-5.01,0.84c-1.74,0.18-3.54,0.23-5.33,0.18c-1.79-0.06-3.57-0.24-5.27-0.54    c-1.71-0.29-3.33-0.69-4.85-1.17c-1.51-0.47-2.9-1.03-4.13-1.63c-1.23-0.6-2.32-1.23-3.25-1.85c-0.93-0.62-1.7-1.25-2.35-1.81    c-0.31-0.29-0.6-0.56-0.86-0.81c-0.25-0.26-0.48-0.49-0.68-0.71c-0.19-0.22-0.36-0.42-0.51-0.59c-0.14-0.17-0.25-0.32-0.35-0.44    c-0.19-0.24-0.28-0.37-0.28-0.37s0.1,0.13,0.29,0.37c0.1,0.12,0.21,0.27,0.36,0.44c0.15,0.17,0.33,0.36,0.52,0.58    c0.2,0.22,0.44,0.45,0.69,0.7c0.26,0.25,0.56,0.52,0.88,0.8c0.66,0.56,1.44,1.17,2.38,1.78c0.94,0.61,2.03,1.23,3.26,1.82    c1.23,0.59,2.62,1.13,4.12,1.6c1.5,0.47,3.12,0.86,4.81,1.15c1.69,0.29,3.46,0.47,5.23,0.52c1.77,0.06,3.56,0.01,5.28-0.16    c1.73-0.17,3.4-0.45,4.97-0.82c1.57-0.37,3.03-0.81,4.35-1.31c1.32-0.5,2.5-1.04,3.54-1.59c1.03-0.55,1.91-1.1,2.65-1.62    c0.18-0.13,0.36-0.26,0.53-0.38c0.16-0.13,0.32-0.25,0.47-0.36c0.31-0.23,0.56-0.46,0.8-0.65c0.46-0.41,0.81-0.73,1.03-0.96    C62.4,34.55,62.52,34.43,62.52,34.43z"/>
		<path class="st12" d="M16.16,15.18c0,0,0.13-0.13,0.36-0.36c0.23-0.24,0.59-0.57,1.07-1c0.49-0.41,1.09-0.91,1.86-1.44    c0.76-0.53,1.65-1.11,2.72-1.67c2.1-1.13,4.83-2.24,8.01-3.02c1.59-0.39,3.28-0.69,5.03-0.88c1.75-0.2,3.55-0.29,5.35-0.26    c1.8,0.03,3.6,0.17,5.33,0.42c1.74,0.25,3.4,0.6,4.96,1.03c1.56,0.43,3.01,0.95,4.32,1.5c1.31,0.56,2.48,1.15,3.49,1.75    c1.01,0.6,1.88,1.2,2.6,1.76c0.36,0.28,0.68,0.55,0.98,0.8c0.28,0.26,0.54,0.49,0.78,0.71c0.22,0.22,0.42,0.42,0.59,0.59    c0.17,0.17,0.3,0.32,0.41,0.44c0.22,0.24,0.34,0.37,0.34,0.37s-0.12-0.13-0.35-0.37c-0.12-0.12-0.25-0.27-0.42-0.44    c-0.18-0.17-0.38-0.36-0.6-0.58c-0.24-0.21-0.5-0.44-0.79-0.7c-0.31-0.24-0.63-0.51-1-0.78c-0.19-0.14-0.38-0.27-0.57-0.42    c-0.19-0.14-0.42-0.28-0.63-0.43c-0.22-0.15-0.44-0.3-0.68-0.44c-0.24-0.14-0.48-0.3-0.73-0.44c-1.02-0.59-2.19-1.17-3.5-1.72    c-1.3-0.55-2.75-1.05-4.3-1.48c-1.55-0.43-3.21-0.78-4.93-1.02c-1.72-0.24-3.5-0.38-5.29-0.41c-1.79-0.03-3.58,0.06-5.31,0.25    c-1.74,0.19-3.42,0.49-4.99,0.87c-1.58,0.38-3.05,0.84-4.39,1.35c-1.34,0.51-2.55,1.06-3.61,1.61c-1.06,0.56-1.97,1.12-2.74,1.64    c-0.78,0.52-1.39,1.01-1.89,1.42c-0.49,0.42-0.86,0.75-1.09,0.99C16.29,15.06,16.16,15.18,16.16,15.18z"/>
		<path class="st13" d="M64.31,34.65c0,0-0.12,0.14-0.36,0.39c-0.23,0.26-0.59,0.62-1.07,1.08c-0.25,0.22-0.51,0.48-0.84,0.74    c-0.16,0.13-0.32,0.27-0.49,0.41c-0.18,0.14-0.37,0.28-0.56,0.43c-0.78,0.58-1.72,1.22-2.83,1.84c-1.11,0.62-2.4,1.24-3.84,1.81    c-1.44,0.57-3.05,1.08-4.77,1.49c-1.73,0.42-3.57,0.74-5.48,0.93c-1.91,0.19-3.88,0.25-5.85,0.18c-1.96-0.08-3.91-0.31-5.77-0.64    c-1.86-0.34-3.63-0.8-5.27-1.35c-1.64-0.55-3.13-1.18-4.47-1.85c-1.32-0.68-2.48-1.39-3.47-2.1c-1-0.69-1.79-1.41-2.48-2.04    c-0.32-0.33-0.63-0.63-0.89-0.91c-0.25-0.29-0.5-0.55-0.69-0.8c-0.19-0.25-0.37-0.47-0.52-0.66c-0.14-0.19-0.25-0.36-0.35-0.5    c-0.19-0.27-0.29-0.41-0.29-0.41s0.1,0.14,0.3,0.41c0.1,0.13,0.21,0.3,0.36,0.49c0.15,0.19,0.33,0.41,0.53,0.65    c0.2,0.24,0.45,0.5,0.71,0.79c0.26,0.29,0.59,0.58,0.91,0.9c0.18,0.15,0.36,0.31,0.54,0.48c0.09,0.08,0.19,0.17,0.28,0.25    c0.1,0.08,0.21,0.16,0.31,0.25c0.21,0.17,0.43,0.34,0.65,0.52c0.23,0.17,0.47,0.34,0.72,0.52c1,0.69,2.15,1.4,3.47,2.07    c1.33,0.66,2.82,1.28,4.45,1.82c1.63,0.53,3.4,0.99,5.25,1.32c1.85,0.33,3.78,0.55,5.73,0.62c1.95,0.08,3.9,0.02,5.8-0.16    c1.9-0.18,3.73-0.5,5.45-0.9c1.72-0.41,3.31-0.91,4.75-1.47c1.44-0.56,2.72-1.17,3.83-1.79c1.11-0.62,2.06-1.24,2.85-1.81    c0.2-0.15,0.39-0.29,0.57-0.42c0.17-0.14,0.34-0.28,0.5-0.41c0.33-0.26,0.59-0.51,0.85-0.73c0.49-0.45,0.86-0.81,1.09-1.07    C64.18,34.78,64.31,34.65,64.31,34.65z"/>
	</g>
	<g>
		<defs>
			<path id="SVGID_13_" d="M65.42,30.14c-4.27,9.58-19.69,14.93-34.14,11.65c-14.27-3.23-21.43-13.5-16.33-22.67     c4.92-8.84,19.58-13.51,33.04-10.67C61.61,11.32,69.53,20.91,65.42,30.14z"/>
		</defs>
		<clipPath id="SVGID_14_">
			<use xlink:href="#SVGID_13_" style="overflow:visible;"/>
		</clipPath>
	</g>
	<path class="st14" d="M14.95,19.13c0,0,0.1-0.16,0.28-0.47c0.17-0.31,0.47-0.75,0.87-1.31c0.22-0.27,0.43-0.58,0.72-0.9   c0.14-0.16,0.28-0.33,0.43-0.5c0.16-0.17,0.33-0.34,0.51-0.52c0.71-0.71,1.58-1.48,2.66-2.25c1.07-0.77,2.35-1.53,3.81-2.23   c1.46-0.7,3.11-1.34,4.9-1.87c1.79-0.53,3.74-0.94,5.76-1.2c2.02-0.27,4.12-0.37,6.21-0.31c1.05,0.03,2.09,0.11,3.12,0.22   c1.03,0.12,2.04,0.26,3.03,0.46c0.25,0.05,0.49,0.1,0.74,0.14c0.24,0.06,0.48,0.11,0.72,0.17c0.48,0.11,0.96,0.22,1.42,0.36   c0.23,0.07,0.46,0.13,0.7,0.2c0.23,0.06,0.46,0.13,0.68,0.21c0.44,0.15,0.89,0.29,1.32,0.45c1.73,0.63,3.27,1.38,4.63,2.17   c0.69,0.39,1.3,0.81,1.9,1.21c0.28,0.21,0.56,0.42,0.83,0.62c0.07,0.05,0.14,0.1,0.2,0.15c0.06,0.05,0.12,0.11,0.19,0.16   c0.12,0.11,0.25,0.21,0.37,0.31c0.51,0.41,0.91,0.83,1.32,1.23c0.19,0.2,0.37,0.41,0.54,0.6c0.17,0.2,0.35,0.38,0.49,0.58   c0.61,0.76,1.06,1.44,1.39,2.02c0.16,0.29,0.3,0.55,0.43,0.77c0.1,0.23,0.19,0.43,0.26,0.58c0.14,0.32,0.22,0.49,0.22,0.49   s-0.08-0.17-0.23-0.49c-0.07-0.16-0.17-0.35-0.27-0.58c-0.13-0.22-0.28-0.48-0.44-0.77c-0.34-0.57-0.81-1.25-1.43-2   c-0.14-0.19-0.33-0.38-0.5-0.57c-0.18-0.19-0.36-0.39-0.55-0.59c-0.42-0.39-0.82-0.81-1.33-1.22c-0.12-0.1-0.25-0.21-0.37-0.31   c-0.06-0.05-0.12-0.1-0.19-0.16c-0.07-0.05-0.14-0.1-0.2-0.15c-0.27-0.2-0.55-0.41-0.83-0.62c-0.6-0.4-1.2-0.82-1.9-1.2   c-1.36-0.78-2.9-1.52-4.62-2.14c-0.43-0.15-0.88-0.29-1.32-0.44c-0.22-0.08-0.45-0.14-0.68-0.2c-0.23-0.06-0.46-0.13-0.69-0.19   c-0.45-0.14-0.94-0.24-1.42-0.35c-0.24-0.06-0.48-0.11-0.72-0.17c-0.24-0.05-0.49-0.09-0.74-0.14c-0.98-0.19-1.99-0.33-3.01-0.45   c-0.51-0.04-1.02-0.1-1.54-0.13c-0.52-0.03-1.03-0.07-1.55-0.07C39.02,7.65,36.94,7.74,34.93,8c-2.01,0.25-3.95,0.65-5.73,1.17   c-1.79,0.52-3.43,1.15-4.89,1.85c-1.46,0.69-2.73,1.45-3.81,2.21c-1.08,0.76-1.96,1.52-2.69,2.23c-0.18,0.18-0.35,0.35-0.51,0.52   c-0.15,0.17-0.3,0.34-0.44,0.5c-0.3,0.31-0.51,0.62-0.73,0.89c-0.41,0.55-0.71,0.99-0.89,1.3C15.05,18.96,14.95,19.13,14.95,19.13z   "/>
	<g>
		<g class="st15">
			<path class="st16" d="M28.11,7.16L22.79,9.1c-0.15,0.06-0.35,0.02-0.43-0.07l-2.9-3.35c-0.08-0.1-0.03-0.22,0.13-0.27l5.29-1.91     c0.15-0.05,0.34-0.02,0.43,0.07l2.93,3.32C28.32,6.98,28.26,7.11,28.11,7.16z M19.66,5.5c-0.07,0.03-0.1,0.08-0.06,0.12l2.9,3.35     c0.04,0.04,0.13,0.06,0.2,0.03l5.32-1.94c0.07-0.03,0.09-0.08,0.06-0.13l-2.93-3.32c-0.04-0.04-0.13-0.06-0.19-0.03L19.66,5.5z"/>
			<path class="st16" d="M25.84,3.17c-0.04,0.01-0.06,0.05-0.03,0.07l2.59,2.93c0.02,0.03,0.08,0.04,0.12,0.02     c0.04-0.02,0.06-0.05,0.03-0.07l-2.59-2.93C25.93,3.16,25.88,3.15,25.84,3.17z"/>
			<path class="st16" d="M24.77,2.97c-0.02-0.03-0.08-0.03-0.12-0.02l-4.67,1.69c-0.04,0.02-0.06,0.05-0.03,0.07     c0.02,0.03,0.07,0.04,0.12,0.02l4.67-1.69C24.78,3.03,24.8,3,24.77,2.97z"/>
			<path class="st16" d="M10.27,22.47l-0.24,4.15c-0.01,0.12-0.16,0.22-0.34,0.22H3.38c-0.18,0-0.32-0.1-0.31-0.22l0.3-4.15     c0.01-0.12,0.16-0.22,0.34-0.22h6.25C10.14,22.26,10.28,22.35,10.27,22.47z M3.25,26.62c0,0.05,0.06,0.1,0.14,0.1h6.3     c0.08,0,0.15-0.04,0.16-0.1l0.24-4.15c0-0.05-0.06-0.1-0.14-0.1H3.7c-0.08,0-0.15,0.04-0.16,0.1L3.25,26.62z"/>
			<path class="st16" d="M3.46,21.73c0,0.03,0.04,0.06,0.08,0.06h5.52c0.05,0,0.09-0.03,0.09-0.06c0-0.03-0.04-0.06-0.09-0.06H3.55     C3.5,21.67,3.46,21.7,3.46,21.73z"/>
			<path class="st16" d="M2.58,22.26c-0.05,0-0.09,0.03-0.09,0.06l-0.27,3.66c0,0.03,0.04,0.06,0.09,0.06     c0.05,0,0.09-0.03,0.09-0.06l0.27-3.66C2.67,22.28,2.63,22.26,2.58,22.26z"/>
			<path class="st16" d="M21.68,40.96l5.56,2.22c0.16,0.06,0.21,0.21,0.12,0.32l-3.37,3.89c-0.1,0.11-0.31,0.15-0.47,0.09     l-5.59-2.25c-0.16-0.06-0.21-0.21-0.11-0.32l3.4-3.86C21.31,40.94,21.52,40.9,21.68,40.96z M23.61,47.37     c0.07,0.03,0.17,0.01,0.21-0.04l3.37-3.89c0.04-0.05,0.02-0.12-0.05-0.14l-5.56-2.22c-0.07-0.03-0.17-0.01-0.21,0.04l-3.4,3.86     c-0.05,0.05-0.02,0.12,0.05,0.15L23.61,47.37z"/>
			<path class="st16" d="M16.94,44.79c0.04,0.02,0.1,0.01,0.13-0.02l3.01-3.41c0.03-0.03,0.01-0.07-0.03-0.09     c-0.04-0.02-0.1-0.01-0.13,0.02l-3.01,3.41C16.88,44.74,16.9,44.78,16.94,44.79z"/>
			<path class="st16" d="M17.19,45.6c-0.03,0.03-0.01,0.07,0.03,0.09l4.94,2c0.04,0.02,0.1,0.01,0.13-0.02     c0.03-0.03,0.01-0.07-0.03-0.09l-4.94-1.99C17.28,45.56,17.22,45.57,17.19,45.6z"/>
			<path class="st16" d="M61.64,45.22l-5.59,2.25c-0.16,0.07-0.37,0.03-0.47-0.09l-3.37-3.89c-0.1-0.11-0.04-0.25,0.12-0.32     l5.56-2.22c0.16-0.06,0.37-0.03,0.47,0.08l3.4,3.86C61.85,45.01,61.8,45.16,61.64,45.22z M52.43,43.29     c-0.07,0.03-0.1,0.09-0.05,0.14l3.37,3.89c0.04,0.05,0.14,0.07,0.21,0.04l5.59-2.25c0.07-0.03,0.1-0.09,0.05-0.15l-3.4-3.86     c-0.04-0.05-0.14-0.07-0.21-0.04L52.43,43.29z"/>
			<path class="st16" d="M51.96,44.33c-0.04,0.02-0.06,0.06-0.03,0.09l2.98,3.45c0.03,0.03,0.08,0.04,0.13,0.02     c0.04-0.02,0.06-0.06,0.03-0.09l-2.98-3.45C52.06,44.32,52.01,44.31,51.96,44.33z"/>
			<path class="st16" d="M61.3,46.04c-0.03-0.03-0.08-0.04-0.13-0.02l-4.95,2c-0.04,0.02-0.06,0.06-0.03,0.09     c0.03,0.03,0.08,0.04,0.13,0.02l4.95-2C61.32,46.11,61.33,46.07,61.3,46.04z"/>
			<path class="st16" d="M76.21,22.47l0.3,4.15c0.01,0.12-0.13,0.22-0.31,0.22h-6.31c-0.18,0-0.34-0.1-0.34-0.22l-0.24-4.15     c-0.01-0.12,0.13-0.22,0.31-0.22h6.25C76.05,22.26,76.21,22.35,76.21,22.47z M69.73,26.62c0,0.05,0.07,0.1,0.16,0.1h6.3     c0.08,0,0.15-0.04,0.14-0.1l-0.3-4.15c0-0.05-0.07-0.1-0.16-0.1h-6.25c-0.08,0-0.15,0.04-0.14,0.1L69.73,26.62z"/>
			<path class="st16" d="M70.81,27.37c0,0.03,0.04,0.06,0.09,0.06h5.58c0.05,0,0.09-0.03,0.09-0.06c0-0.03-0.04-0.06-0.09-0.06     h-5.58C70.84,27.31,70.8,27.34,70.81,27.37z"/>
			<path class="st16" d="M77.06,23.05c-0.05,0-0.09,0.03-0.08,0.06l0.27,3.67c0,0.03,0.04,0.06,0.09,0.06s0.09-0.03,0.09-0.06     l-0.27-3.67C77.15,23.07,77.11,23.05,77.06,23.05z"/>
			<path class="st16" d="M54.72,3.49l5.29,1.91c0.15,0.06,0.21,0.18,0.13,0.27l-2.9,3.35c-0.08,0.1-0.28,0.13-0.43,0.07l-5.32-1.94     c-0.15-0.06-0.21-0.18-0.12-0.28l2.93-3.32C54.37,3.47,54.57,3.44,54.72,3.49z M56.88,9.01c0.07,0.03,0.16,0.01,0.2-0.03     l2.91-3.35c0.04-0.04,0.01-0.1-0.06-0.12l-5.29-1.91c-0.07-0.02-0.16-0.01-0.19,0.03l-2.93,3.32c-0.04,0.04-0.01,0.1,0.06,0.13     L56.88,9.01z"/>
			<path class="st16" d="M58.32,8.81c0.04,0.02,0.09,0.01,0.12-0.02L61,5.83c0.02-0.03,0.01-0.06-0.03-0.07     c-0.04-0.02-0.09-0.01-0.12,0.02l-2.56,2.96C58.27,8.76,58.28,8.79,58.32,8.81z"/>
			<path class="st16" d="M55.83,3.33c-0.02,0.03-0.01,0.06,0.03,0.07l4.68,1.69c0.04,0.02,0.09,0.01,0.12-0.02     c0.02-0.03,0.01-0.06-0.03-0.07l-4.68-1.69C55.9,3.3,55.85,3.31,55.83,3.33z"/>
		</g>
		<g>
			<path class="st17" d="M28.22,7.22L22.9,9.16c-0.15,0.06-0.35,0.02-0.43-0.07l-2.9-3.35c-0.08-0.1-0.03-0.22,0.13-0.27l5.29-1.91     c0.15-0.06,0.34-0.02,0.43,0.07l2.93,3.32C28.43,7.04,28.37,7.17,28.22,7.22z M19.78,5.56c-0.07,0.03-0.1,0.08-0.06,0.12     l2.9,3.35c0.04,0.04,0.13,0.06,0.2,0.03l5.32-1.94C28.21,7.1,28.23,7.05,28.19,7l-2.93-3.32c-0.04-0.04-0.13-0.06-0.19-0.03     L19.78,5.56z"/>
			<g>
				<path class="st8" d="M24.54,6.13c0.18,0.2,0.06,0.47-0.26,0.58c-0.32,0.12-0.73,0.05-0.91-0.16c-0.18-0.2-0.06-0.47,0.26-0.58      C23.95,5.85,24.36,5.92,24.54,6.13z"/>
				<path class="st8" d="M25.25,4.42c0.18,0.2,0.06,0.46-0.26,0.58c-0.32,0.12-0.73,0.05-0.91-0.16c-0.18-0.2-0.06-0.46,0.26-0.58      C24.66,4.15,25.07,4.21,25.25,4.42z"/>
				<path class="st8" d="M27.19,6.62c0.18,0.2,0.06,0.47-0.26,0.58c-0.32,0.12-0.73,0.05-0.91-0.16c-0.18-0.2-0.06-0.47,0.26-0.58      C26.6,6.35,27.01,6.42,27.19,6.62z"/>
				<path class="st8" d="M21.89,5.63c0.18,0.2,0.06,0.46-0.27,0.58c-0.32,0.12-0.73,0.05-0.91-0.16c-0.18-0.2-0.06-0.46,0.27-0.58      C21.31,5.36,21.71,5.43,21.89,5.63z"/>
				<path class="st8" d="M23.82,7.85c0.18,0.21,0.06,0.47-0.27,0.59c-0.33,0.12-0.74,0.05-0.91-0.16c-0.18-0.21-0.06-0.47,0.27-0.59      C23.23,7.58,23.64,7.65,23.82,7.85z"/>
			</g>
			<path class="st17" d="M25.95,3.23c-0.04,0.01-0.06,0.05-0.03,0.07l2.59,2.93c0.02,0.03,0.08,0.04,0.12,0.02     c0.04-0.02,0.06-0.05,0.03-0.08l-2.59-2.93C26.05,3.22,26,3.21,25.95,3.23z"/>
			<path class="st17" d="M24.89,3.03C24.86,3,24.81,2.99,24.77,3.01L20.1,4.69c-0.04,0.02-0.06,0.05-0.03,0.07s0.07,0.04,0.12,0.02     l4.67-1.69C24.9,3.09,24.91,3.05,24.89,3.03z"/>
		</g>
		<g>
			<path class="st17" d="M10.39,22.53l-0.24,4.15C10.14,26.8,9.99,26.9,9.8,26.9H3.5c-0.18,0-0.32-0.1-0.31-0.22l0.3-4.15     c0.01-0.12,0.16-0.22,0.34-0.22h6.25C10.26,22.32,10.4,22.42,10.39,22.53z M3.36,26.68c0,0.05,0.06,0.1,0.14,0.1h6.31     c0.08,0,0.15-0.04,0.16-0.1l0.24-4.15c0-0.05-0.06-0.1-0.14-0.1H3.82c-0.08,0-0.15,0.04-0.16,0.1L3.36,26.68z"/>
			<g>
				<path class="st8" d="M4.84,22.83c0.38,0,0.68,0.2,0.66,0.46c-0.02,0.25-0.34,0.46-0.72,0.46s-0.68-0.2-0.66-0.46      C4.13,23.03,4.46,22.83,4.84,22.83z"/>
				<path class="st8" d="M8.99,22.83c0.38,0,0.68,0.2,0.67,0.46c-0.02,0.25-0.34,0.46-0.72,0.46c-0.38,0-0.68-0.2-0.67-0.46      C8.29,23.03,8.61,22.83,8.99,22.83z"/>
				<path class="st8" d="M4.66,25.46c0.38,0,0.68,0.21,0.67,0.46c-0.02,0.25-0.34,0.46-0.73,0.46c-0.39,0-0.68-0.21-0.66-0.46      C3.95,25.66,4.28,25.46,4.66,25.46z"/>
				<path class="st8" d="M8.83,25.46c0.38,0,0.68,0.21,0.67,0.46c-0.02,0.25-0.34,0.46-0.73,0.46s-0.68-0.21-0.67-0.46      C8.12,25.66,8.45,25.46,8.83,25.46z"/>
			</g>
			<path class="st17" d="M3.57,21.79c0,0.03,0.04,0.06,0.08,0.06h5.52c0.05,0,0.09-0.03,0.09-0.06c0-0.03-0.04-0.06-0.09-0.06H3.67     C3.62,21.73,3.57,21.76,3.57,21.79z"/>
			<path class="st17" d="M2.7,22.32c-0.05,0-0.09,0.03-0.09,0.06l-0.27,3.66c0,0.03,0.04,0.06,0.09,0.06c0.05,0,0.09-0.03,0.09-0.06     l0.27-3.66C2.78,22.35,2.74,22.32,2.7,22.32z"/>
		</g>
		<g>
			<path class="st17" d="M21.8,41.03l5.56,2.22c0.16,0.06,0.21,0.21,0.12,0.32l-3.37,3.89c-0.1,0.11-0.31,0.15-0.47,0.09l-5.59-2.26     c-0.16-0.06-0.21-0.21-0.11-0.32l3.4-3.86C21.44,41,21.64,40.97,21.8,41.03z M23.73,47.44c0.07,0.03,0.17,0.01,0.21-0.04     l3.37-3.89c0.04-0.05,0.02-0.12-0.05-0.14l-5.56-2.22c-0.07-0.03-0.17-0.01-0.21,0.04l-3.4,3.86c-0.05,0.05-0.02,0.12,0.05,0.15     L23.73,47.44z"/>
			<g>
				<path class="st8" d="M19.2,44.6c0.21-0.24,0.65-0.32,0.99-0.18c0.34,0.14,0.45,0.44,0.24,0.68c-0.21,0.24-0.65,0.32-0.99,0.18      C19.1,45.14,18.99,44.83,19.2,44.6z"/>
				<path class="st8" d="M20.33,43.31c0.21-0.24,0.65-0.32,0.99-0.18c0.34,0.14,0.45,0.44,0.24,0.67c-0.21,0.24-0.65,0.32-0.99,0.18      C20.23,43.85,20.12,43.55,20.33,43.31z"/>
				<path class="st8" d="M21.46,42.04c0.21-0.23,0.65-0.32,0.99-0.18c0.34,0.14,0.45,0.44,0.24,0.67c-0.21,0.24-0.65,0.32-0.99,0.18      C21.36,42.57,21.25,42.27,21.46,42.04z"/>
				<path class="st8" d="M22.74,46.02c0.21-0.24,0.65-0.32,1-0.18c0.34,0.14,0.45,0.44,0.24,0.68c-0.21,0.24-0.65,0.32-1,0.18      C22.65,46.57,22.54,46.26,22.74,46.02z"/>
				<path class="st8" d="M23.87,44.73c0.21-0.24,0.65-0.32,0.99-0.18c0.34,0.14,0.45,0.44,0.25,0.68c-0.21,0.24-0.65,0.32-0.99,0.18      C23.77,45.27,23.66,44.97,23.87,44.73z"/>
				<path class="st8" d="M24.99,43.45c0.21-0.24,0.65-0.32,0.99-0.18c0.34,0.14,0.45,0.44,0.25,0.68c-0.21,0.24-0.65,0.32-0.99,0.18      C24.89,43.99,24.78,43.68,24.99,43.45z"/>
			</g>
			<path class="st17" d="M17.06,44.86c0.04,0.02,0.1,0.01,0.13-0.02l3.01-3.41c0.03-0.03,0.01-0.07-0.03-0.09     c-0.04-0.02-0.1-0.01-0.13,0.02l-3.01,3.41C17.01,44.81,17.02,44.85,17.06,44.86z"/>
			<path class="st17" d="M17.32,45.67c-0.03,0.03-0.01,0.07,0.03,0.09l4.94,2c0.04,0.02,0.1,0.01,0.13-0.02     c0.03-0.03,0.01-0.07-0.03-0.09l-4.94-1.99C17.4,45.63,17.34,45.64,17.32,45.67z"/>
		</g>
		<g>
			<path class="st17" d="M61.77,45.29l-5.59,2.26c-0.16,0.07-0.37,0.03-0.47-0.09l-3.37-3.89c-0.1-0.11-0.04-0.25,0.12-0.32     l5.56-2.22c0.16-0.06,0.37-0.03,0.47,0.08l3.4,3.86C61.98,45.08,61.93,45.23,61.77,45.29z M52.55,43.36     c-0.07,0.03-0.1,0.09-0.05,0.14l3.37,3.89c0.04,0.05,0.14,0.07,0.21,0.04l5.59-2.25c0.07-0.03,0.1-0.09,0.05-0.15l-3.4-3.86     c-0.04-0.05-0.14-0.07-0.21-0.04L52.55,43.36z"/>
			<g>
				<path class="st8" d="M60.62,44.6c0.21,0.24,0.1,0.54-0.24,0.68c-0.34,0.14-0.79,0.06-0.99-0.18c-0.21-0.24-0.1-0.54,0.24-0.68      C59.96,44.28,60.41,44.36,60.62,44.6z"/>
				<path class="st8" d="M54.83,43.45c0.21,0.24,0.1,0.54-0.25,0.68c-0.34,0.14-0.79,0.06-0.99-0.18c-0.21-0.24-0.09-0.54,0.25-0.68      C54.18,43.13,54.63,43.21,54.83,43.45z"/>
			</g>
			<path class="st17" d="M52.09,44.4c-0.04,0.02-0.06,0.06-0.03,0.09l2.98,3.45c0.03,0.03,0.08,0.04,0.13,0.02     c0.04-0.02,0.06-0.06,0.03-0.09l-2.98-3.45C52.19,44.39,52.13,44.38,52.09,44.4z"/>
			<path class="st17" d="M61.43,46.11c-0.03-0.03-0.08-0.04-0.13-0.02l-4.95,2c-0.04,0.02-0.06,0.06-0.03,0.09     c0.03,0.03,0.08,0.04,0.13,0.02l4.95-2C61.45,46.18,61.46,46.14,61.43,46.11z"/>
		</g>
		<g>
			<path class="st18" d="M76.34,22.53l0.3,4.15c0.01,0.12-0.13,0.22-0.31,0.22h-6.31c-0.18,0-0.34-0.1-0.34-0.22l-0.24-4.15     c-0.01-0.12,0.13-0.22,0.31-0.22h6.25C76.17,22.32,76.33,22.42,76.34,22.53z M69.85,26.68c0,0.05,0.07,0.1,0.16,0.1h6.31     c0.08,0,0.15-0.04,0.14-0.1l-0.3-4.15c0-0.05-0.07-0.1-0.16-0.1h-6.25c-0.08,0-0.15,0.04-0.14,0.1L69.85,26.68z"/>
			<g>
				<path class="st8" d="M72.99,24.14c0.38,0,0.71,0.21,0.72,0.46c0.02,0.25-0.28,0.46-0.67,0.46c-0.38,0-0.71-0.21-0.73-0.46      C72.31,24.35,72.6,24.14,72.99,24.14z"/>
				<path class="st8" d="M70.83,22.83c0.38,0,0.71,0.2,0.72,0.46c0.02,0.25-0.28,0.46-0.67,0.46c-0.38,0-0.71-0.2-0.72-0.46      C70.15,23.03,70.45,22.83,70.83,22.83z"/>
				<path class="st8" d="M75.16,25.46c0.38,0,0.71,0.21,0.73,0.46c0.02,0.25-0.28,0.46-0.67,0.46c-0.39,0-0.71-0.21-0.73-0.46      C74.48,25.66,74.77,25.46,75.16,25.46z"/>
			</g>
			<path class="st17" d="M70.93,27.44c0,0.03,0.04,0.06,0.09,0.06h5.58c0.05,0,0.09-0.03,0.09-0.06c0-0.03-0.04-0.06-0.09-0.06     h-5.58C70.97,27.38,70.93,27.4,70.93,27.44z"/>
			<path class="st17" d="M77.18,23.11c-0.05,0-0.09,0.03-0.08,0.06l0.27,3.67c0,0.03,0.04,0.06,0.09,0.06     c0.05,0,0.09-0.03,0.09-0.06l-0.27-3.67C77.27,23.14,77.23,23.11,77.18,23.11z"/>
		</g>
		<g>
			<path class="st17" d="M54.83,3.55l5.29,1.91c0.15,0.06,0.21,0.18,0.13,0.27l-2.9,3.35c-0.08,0.1-0.28,0.13-0.43,0.07L51.6,7.22     c-0.15-0.06-0.21-0.18-0.12-0.28l2.93-3.32C54.49,3.53,54.68,3.5,54.83,3.55z M57,9.07c0.07,0.03,0.16,0.01,0.2-0.03l2.9-3.35     c0.04-0.04,0.01-0.1-0.06-0.12l-5.29-1.91c-0.07-0.03-0.16-0.01-0.19,0.03L51.63,7c-0.04,0.04-0.01,0.1,0.06,0.13L57,9.07z"/>
			<path class="st8" d="M55.28,6.13c0.18-0.2,0.59-0.27,0.91-0.16c0.32,0.12,0.44,0.38,0.26,0.58c-0.18,0.2-0.59,0.27-0.91,0.16     C55.22,6.59,55.1,6.33,55.28,6.13z"/>
			<path class="st17" d="M58.44,8.87c0.04,0.02,0.09,0.01,0.12-0.02l2.56-2.96c0.02-0.03,0.01-0.06-0.03-0.07s-0.09-0.01-0.12,0.02     l-2.56,2.96C58.39,8.82,58.4,8.85,58.44,8.87z"/>
			<path class="st17" d="M55.95,3.39c-0.02,0.03-0.01,0.06,0.03,0.07l4.68,1.69c0.04,0.02,0.09,0.01,0.12-0.02     c0.02-0.03,0.01-0.06-0.03-0.07l-4.68-1.69C56.02,3.36,55.97,3.37,55.95,3.39z"/>
		</g>
	</g>
</g>
</svg>