<?xml version="1.0" encoding="UTF-8"?>
<!-- Generator: Adobe Illustrator 25.2.1, SVG Export Plug-In . SVG Version: 6.00 Build 0)  -->
<svg version="1.1" id="Layer_1" xmlns="http://www.w3.org/2000/svg" xmlns:xlink="http://www.w3.org/1999/xlink" x="0px" y="0px" viewBox="0 0 415 415" style="enable-background:new 0 0 415 415;" xml:space="preserve">
<style type="text/css">
	.st0{fill:#3F3F3F;}
	.st1{fill:#0F8B44;filter:url(#Adobe_OpacityMaskFilter);}
	.st2{mask:url(#mask0_1_);}
	.st3{fill-rule:evenodd;clip-rule:evenodd;fill:#FFFFFF;}
	.st4{fill:#0F8B44;filter:url(#Adobe_OpacityMaskFilter_1_);}
	.st5{mask:url(#mask0_2_);}
	.st6{fill:#0F8B44;filter:url(#Adobe_OpacityMaskFilter_2_);}
	.st7{mask:url(#mask0_4_);}
	.st8{fill:#0F8B44;filter:url(#Adobe_OpacityMaskFilter_3_);}
	.st9{mask:url(#mask0_5_);}
	.st10{fill:#0F8B44;filter:url(#Adobe_OpacityMaskFilter_4_);}
	.st11{mask:url(#mask0_6_);}
	.st12{fill:#0F8B44;filter:url(#Adobe_OpacityMaskFilter_5_);}
	.st13{mask:url(#mask0_3_);}
	.st14{fill:#370F8B;filter:url(#Adobe_OpacityMaskFilter_6_);}
	.st15{mask:url(#mask1_1_);}
	.st16{fill:#FFFFFF;}
	.st17{fill:#666666;}
</style>
<path class="st0" d="M102.56,311.21c-57.29-57.29-57.29-150.18,0-207.47c57.29-57.29,150.18-57.29,207.47,0  c57.29,57.29,57.29,150.18,0,207.47C252.74,368.5,159.85,368.5,102.56,311.21z"/>
<defs>
	<filter id="Adobe_OpacityMaskFilter" filterUnits="userSpaceOnUse" x="51.14" y="52.45" width="312.43" height="307.86">
		<feColorMatrix type="matrix" values="1 0 0 0 0  0 1 0 0 0  0 0 1 0 0  0 0 0 1 0"/>
	</filter>
</defs>
<mask maskUnits="userSpaceOnUse" x="51.14" y="52.45" width="312.43" height="307.86" id="mask0_1_">
	<path class="st1" d="M207.35,353.47c-81.24,0-147.09-65.85-147.09-147.09S126.11,59.29,207.35,59.29s147.09,65.85,147.09,147.09   S288.58,353.47,207.35,353.47z"/>
</mask>
<g class="st2">
	<path class="st3" d="M148.11,108.11c-6.76,2.08-13.93-1.69-16.02-8.44l-4.58-14.79c-2.09-6.75,1.69-13.9,8.46-15.98l51.48-15.88   c6.76-2.08,13.93,1.69,16.02,8.39l4.58,14.84c2.09,6.75-1.69,13.9-8.46,15.98L148.11,108.11z M262.71,104.34   c-5.17-4.81-5.52-12.9-0.7-18.07l10.54-11.37c4.83-5.16,12.93-5.51,18.11-0.69l39.49,36.53c5.17,4.81,5.52,12.9,0.7,18.07   l-10.54,11.36c-4.83,5.16-12.93,5.51-18.11,0.7L262.71,104.34z M338.42,190.6c-6.91-1.59-13.78,2.73-15.32,9.63l-11.94,52.41   c-1.59,6.9,2.74,13.75,9.65,15.29l15.17,3.42c6.91,1.59,13.78-2.73,15.32-9.63l11.94-52.41c1.59-6.9-2.74-13.75-9.65-15.29   L338.42,190.6z M268.93,304.6c6.76-2.08,13.93,1.69,16.02,8.44l4.58,14.84c2.09,6.75-1.69,13.9-8.46,15.98l-51.48,15.88   c-6.76,2.08-13.93-1.69-16.02-8.44l-4.58-14.84c-2.09-6.75,1.69-13.9,8.46-15.98L268.93,304.6z M152.24,326.64   c4.82-5.16,4.48-13.25-0.7-18.07l-39.49-36.53c-5.17-4.81-13.28-4.47-18.11,0.7L83.4,284.11c-4.82,5.16-4.48,13.25,0.7,18.07   l39.49,36.53c5.17,4.81,13.28,4.47,18.11-0.7L152.24,326.64z M91.61,207.13c-1.54,6.9-8.41,11.22-15.32,9.63l-15.17-3.43   c-6.91-1.54-11.24-8.39-9.65-15.29l11.94-52.41c1.54-6.9,8.41-11.22,15.32-9.63l15.17,3.43c6.91,1.54,11.24,8.39,9.65,15.29   L91.61,207.13z"/>
</g>
<defs>
	<filter id="Adobe_OpacityMaskFilter_1_" filterUnits="userSpaceOnUse" x="51.14" y="52.45" width="312.43" height="307.86">
		<feColorMatrix type="matrix" values="1 0 0 0 0  0 1 0 0 0  0 0 1 0 0  0 0 0 1 0"/>
	</filter>
</defs>
<mask maskUnits="userSpaceOnUse" x="51.14" y="52.45" width="312.43" height="307.86" id="mask0_2_">
	<path class="st4" d="M207.35,353.47c-81.24,0-147.09-65.85-147.09-147.09S126.11,59.29,207.35,59.29s147.09,65.85,147.09,147.09   S288.58,353.47,207.35,353.47z"/>
</mask>
<g class="st5">
	<path class="st3" d="M148.11,108.11c-6.76,2.08-13.93-1.69-16.02-8.44l-4.58-14.79c-2.09-6.75,1.69-13.9,8.46-15.98l51.48-15.88   c6.76-2.08,13.93,1.69,16.02,8.39l4.58,14.84c2.09,6.75-1.69,13.9-8.46,15.98L148.11,108.11z M262.71,104.34   c-5.17-4.81-5.52-12.9-0.7-18.07l10.54-11.37c4.83-5.16,12.93-5.51,18.11-0.69l39.49,36.53c5.17,4.81,5.52,12.9,0.7,18.07   l-10.54,11.36c-4.83,5.16-12.93,5.51-18.11,0.7L262.71,104.34z M338.42,190.6c-6.91-1.59-13.78,2.73-15.32,9.63l-11.94,52.41   c-1.59,6.9,2.74,13.75,9.65,15.29l15.17,3.42c6.91,1.59,13.78-2.73,15.32-9.63l11.94-52.41c1.59-6.9-2.74-13.75-9.65-15.29   L338.42,190.6z M268.93,304.6c6.76-2.08,13.93,1.69,16.02,8.44l4.58,14.84c2.09,6.75-1.69,13.9-8.46,15.98l-51.48,15.88   c-6.76,2.08-13.93-1.69-16.02-8.44l-4.58-14.84c-2.09-6.75,1.69-13.9,8.46-15.98L268.93,304.6z M152.24,326.64   c4.82-5.16,4.48-13.25-0.7-18.07l-39.49-36.53c-5.17-4.81-13.28-4.47-18.11,0.7L83.4,284.11c-4.82,5.16-4.48,13.25,0.7,18.07   l39.49,36.53c5.17,4.81,13.28,4.47,18.11-0.7L152.24,326.64z M91.61,207.13c-1.54,6.9-8.41,11.22-15.32,9.63l-15.17-3.43   c-6.91-1.54-11.24-8.39-9.65-15.29l11.94-52.41c1.54-6.9,8.41-11.22,15.32-9.63l15.17,3.43c6.91,1.54,11.24,8.39,9.65,15.29   L91.61,207.13z"/>
</g>
<defs>
	<filter id="Adobe_OpacityMaskFilter_2_" filterUnits="userSpaceOnUse" x="51.14" y="52.45" width="312.43" height="307.86">
		<feColorMatrix type="matrix" values="1 0 0 0 0  0 1 0 0 0  0 0 1 0 0  0 0 0 1 0"/>
	</filter>
</defs>
<mask maskUnits="userSpaceOnUse" x="51.14" y="52.45" width="312.43" height="307.86" id="mask0_4_">
	<path class="st6" d="M207.35,353.47c-81.24,0-147.09-65.85-147.09-147.09S126.11,59.29,207.35,59.29s147.09,65.85,147.09,147.09   S288.58,353.47,207.35,353.47z"/>
</mask>
<g class="st7">
	<path class="st3" d="M148.11,108.11c-6.76,2.08-13.93-1.69-16.02-8.44l-4.58-14.79c-2.09-6.75,1.69-13.9,8.46-15.98l51.48-15.88   c6.76-2.08,13.93,1.69,16.02,8.39l4.58,14.84c2.09,6.75-1.69,13.9-8.46,15.98L148.11,108.11z M262.71,104.34   c-5.17-4.81-5.52-12.9-0.7-18.07l10.54-11.37c4.83-5.16,12.93-5.51,18.11-0.69l39.49,36.53c5.17,4.81,5.52,12.9,0.7,18.07   l-10.54,11.36c-4.83,5.16-12.93,5.51-18.11,0.7L262.71,104.34z M338.42,190.6c-6.91-1.59-13.78,2.73-15.32,9.63l-11.94,52.41   c-1.59,6.9,2.74,13.75,9.65,15.29l15.17,3.42c6.91,1.59,13.78-2.73,15.32-9.63l11.94-52.41c1.59-6.9-2.74-13.75-9.65-15.29   L338.42,190.6z M268.93,304.6c6.76-2.08,13.93,1.69,16.02,8.44l4.58,14.84c2.09,6.75-1.69,13.9-8.46,15.98l-51.48,15.88   c-6.76,2.08-13.93-1.69-16.02-8.44l-4.58-14.84c-2.09-6.75,1.69-13.9,8.46-15.98L268.93,304.6z M152.24,326.64   c4.82-5.16,4.48-13.25-0.7-18.07l-39.49-36.53c-5.17-4.81-13.28-4.47-18.11,0.7L83.4,284.11c-4.82,5.16-4.48,13.25,0.7,18.07   l39.49,36.53c5.17,4.81,13.28,4.47,18.11-0.7L152.24,326.64z M91.61,207.13c-1.54,6.9-8.41,11.22-15.32,9.63l-15.17-3.43   c-6.91-1.54-11.24-8.39-9.65-15.29l11.94-52.41c1.54-6.9,8.41-11.22,15.32-9.63l15.17,3.43c6.91,1.54,11.24,8.39,9.65,15.29   L91.61,207.13z"/>
</g>
<defs>
	<filter id="Adobe_OpacityMaskFilter_3_" filterUnits="userSpaceOnUse" x="51.14" y="52.45" width="312.43" height="307.86">
		<feColorMatrix type="matrix" values="1 0 0 0 0  0 1 0 0 0  0 0 1 0 0  0 0 0 1 0"/>
	</filter>
</defs>
<mask maskUnits="userSpaceOnUse" x="51.14" y="52.45" width="312.43" height="307.86" id="mask0_5_">
	<path class="st8" d="M207.35,353.47c-81.24,0-147.09-65.85-147.09-147.09S126.11,59.29,207.35,59.29s147.09,65.85,147.09,147.09   S288.58,353.47,207.35,353.47z"/>
</mask>
<g class="st9">
	<path class="st3" d="M148.11,108.11c-6.76,2.08-13.93-1.69-16.02-8.44l-4.58-14.79c-2.09-6.75,1.69-13.9,8.46-15.98l51.48-15.88   c6.76-2.08,13.93,1.69,16.02,8.39l4.58,14.84c2.09,6.75-1.69,13.9-8.46,15.98L148.11,108.11z M262.71,104.34   c-5.17-4.81-5.52-12.9-0.7-18.07l10.54-11.37c4.83-5.16,12.93-5.51,18.11-0.69l39.49,36.53c5.17,4.81,5.52,12.9,0.7,18.07   l-10.54,11.36c-4.83,5.16-12.93,5.51-18.11,0.7L262.71,104.34z M338.42,190.6c-6.91-1.59-13.78,2.73-15.32,9.63l-11.94,52.41   c-1.59,6.9,2.74,13.75,9.65,15.29l15.17,3.42c6.91,1.59,13.78-2.73,15.32-9.63l11.94-52.41c1.59-6.9-2.74-13.75-9.65-15.29   L338.42,190.6z M268.93,304.6c6.76-2.08,13.93,1.69,16.02,8.44l4.58,14.84c2.09,6.75-1.69,13.9-8.46,15.98l-51.48,15.88   c-6.76,2.08-13.93-1.69-16.02-8.44l-4.58-14.84c-2.09-6.75,1.69-13.9,8.46-15.98L268.93,304.6z M152.24,326.64   c4.82-5.16,4.48-13.25-0.7-18.07l-39.49-36.53c-5.17-4.81-13.28-4.47-18.11,0.7L83.4,284.11c-4.82,5.16-4.48,13.25,0.7,18.07   l39.49,36.53c5.17,4.81,13.28,4.47,18.11-0.7L152.24,326.64z M91.61,207.13c-1.54,6.9-8.41,11.22-15.32,9.63l-15.17-3.43   c-6.91-1.54-11.24-8.39-9.65-15.29l11.94-52.41c1.54-6.9,8.41-11.22,15.32-9.63l15.17,3.43c6.91,1.54,11.24,8.39,9.65,15.29   L91.61,207.13z"/>
</g>
<defs>
	<filter id="Adobe_OpacityMaskFilter_4_" filterUnits="userSpaceOnUse" x="51.14" y="52.45" width="312.43" height="307.86">
		<feColorMatrix type="matrix" values="1 0 0 0 0  0 1 0 0 0  0 0 1 0 0  0 0 0 1 0"/>
	</filter>
</defs>
<mask maskUnits="userSpaceOnUse" x="51.14" y="52.45" width="312.43" height="307.86" id="mask0_6_">
	<path class="st10" d="M207.35,353.47c-81.24,0-147.09-65.85-147.09-147.09S126.11,59.29,207.35,59.29s147.09,65.85,147.09,147.09   S288.58,353.47,207.35,353.47z"/>
</mask>
<g class="st11">
	<path class="st3" d="M148.11,108.11c-6.76,2.08-13.93-1.69-16.02-8.44l-4.58-14.79c-2.09-6.75,1.69-13.9,8.46-15.98l51.48-15.88   c6.76-2.08,13.93,1.69,16.02,8.39l4.58,14.84c2.09,6.75-1.69,13.9-8.46,15.98L148.11,108.11z M262.71,104.34   c-5.17-4.81-5.52-12.9-0.7-18.07l10.54-11.37c4.83-5.16,12.93-5.51,18.11-0.69l39.49,36.53c5.17,4.81,5.52,12.9,0.7,18.07   l-10.54,11.36c-4.83,5.16-12.93,5.51-18.11,0.7L262.71,104.34z M338.42,190.6c-6.91-1.59-13.78,2.73-15.32,9.63l-11.94,52.41   c-1.59,6.9,2.74,13.75,9.65,15.29l15.17,3.42c6.91,1.59,13.78-2.73,15.32-9.63l11.94-52.41c1.59-6.9-2.74-13.75-9.65-15.29   L338.42,190.6z M268.93,304.6c6.76-2.08,13.93,1.69,16.02,8.44l4.58,14.84c2.09,6.75-1.69,13.9-8.46,15.98l-51.48,15.88   c-6.76,2.08-13.93-1.69-16.02-8.44l-4.58-14.84c-2.09-6.75,1.69-13.9,8.46-15.98L268.93,304.6z M152.24,326.64   c4.82-5.16,4.48-13.25-0.7-18.07l-39.49-36.53c-5.17-4.81-13.28-4.47-18.11,0.7L83.4,284.11c-4.82,5.16-4.48,13.25,0.7,18.07   l39.49,36.53c5.17,4.81,13.28,4.47,18.11-0.7L152.24,326.64z M91.61,207.13c-1.54,6.9-8.41,11.22-15.32,9.63l-15.17-3.43   c-6.91-1.54-11.24-8.39-9.65-15.29l11.94-52.41c1.54-6.9,8.41-11.22,15.32-9.63l15.17,3.43c6.91,1.54,11.24,8.39,9.65,15.29   L91.61,207.13z"/>
</g>
<defs>
	<filter id="Adobe_OpacityMaskFilter_5_" filterUnits="userSpaceOnUse" x="51.14" y="52.45" width="312.43" height="307.86">
		<feColorMatrix type="matrix" values="1 0 0 0 0  0 1 0 0 0  0 0 1 0 0  0 0 0 1 0"/>
	</filter>
</defs>
<mask maskUnits="userSpaceOnUse" x="51.14" y="52.45" width="312.43" height="307.86" id="mask0_3_">
	<path class="st12" d="M207.35,353.47c-81.24,0-147.09-65.85-147.09-147.09S126.11,59.29,207.35,59.29s147.09,65.85,147.09,147.09   S288.58,353.47,207.35,353.47z"/>
</mask>
<g class="st13">
	<path class="st3" d="M148.11,108.11c-6.76,2.08-13.93-1.69-16.02-8.44l-4.58-14.79c-2.09-6.75,1.69-13.9,8.46-15.98l51.48-15.88   c6.76-2.08,13.93,1.69,16.02,8.39l4.58,14.84c2.09,6.75-1.69,13.9-8.46,15.98L148.11,108.11z M262.71,104.34   c-5.17-4.81-5.52-12.9-0.7-18.07l10.54-11.37c4.83-5.16,12.93-5.51,18.11-0.69l39.49,36.53c5.17,4.81,5.52,12.9,0.7,18.07   l-10.54,11.36c-4.83,5.16-12.93,5.51-18.11,0.7L262.71,104.34z M338.42,190.6c-6.91-1.59-13.78,2.73-15.32,9.63l-11.94,52.41   c-1.59,6.9,2.74,13.75,9.65,15.29l15.17,3.42c6.91,1.59,13.78-2.73,15.32-9.63l11.94-52.41c1.59-6.9-2.74-13.75-9.65-15.29   L338.42,190.6z M268.93,304.6c6.76-2.08,13.93,1.69,16.02,8.44l4.58,14.84c2.09,6.75-1.69,13.9-8.46,15.98l-51.48,15.88   c-6.76,2.08-13.93-1.69-16.02-8.44l-4.58-14.84c-2.09-6.75,1.69-13.9,8.46-15.98L268.93,304.6z M152.24,326.64   c4.82-5.16,4.48-13.25-0.7-18.07l-39.49-36.53c-5.17-4.81-13.28-4.47-18.11,0.7L83.4,284.11c-4.82,5.16-4.48,13.25,0.7,18.07   l39.49,36.53c5.17,4.81,13.28,4.47,18.11-0.7L152.24,326.64z M91.61,207.13c-1.54,6.9-8.41,11.22-15.32,9.63l-15.17-3.43   c-6.91-1.54-11.24-8.39-9.65-15.29l11.94-52.41c1.54-6.9,8.41-11.22,15.32-9.63l15.17,3.43c6.91,1.54,11.24,8.39,9.65,15.29   L91.61,207.13z"/>
</g>
<defs>
	<filter id="Adobe_OpacityMaskFilter_6_" filterUnits="userSpaceOnUse" x="100.78" y="100.2" width="212.55" height="212.55">
		<feColorMatrix type="matrix" values="1 0 0 0 0  0 1 0 0 0  0 0 1 0 0  0 0 0 1 0"/>
	</filter>
</defs>
<mask maskUnits="userSpaceOnUse" x="100.78" y="100.2" width="212.55" height="212.55" id="mask1_1_">
	<path class="st14" d="M204.51,353.47c-81.24,0-147.09-65.85-147.09-147.09S123.28,59.29,204.51,59.29S351.6,125.14,351.6,206.38   S285.75,353.47,204.51,353.47z"/>
</mask>
<g class="st15">
	<path class="st16" d="M131.91,281.62c-41.5-41.5-41.5-108.79,0-150.3c41.5-41.5,108.79-41.5,150.3,0c41.5,41.5,41.5,108.79,0,150.3   C240.7,323.13,173.41,323.13,131.91,281.62z"/>
	<path class="st17" d="M135.82,277.71c-39.34-39.34-39.34-103.13,0-142.48c39.34-39.34,103.13-39.34,142.48,0   c39.34,39.34,39.34,103.13,0,142.48C238.95,317.06,175.16,317.06,135.82,277.71z"/>
	<path class="st16" d="M143.11,270.42c-35.32-35.32-35.32-92.57,0-127.89s92.58-35.32,127.89,0s35.32,92.57,0,127.89   C235.69,305.74,178.43,305.74,143.11,270.42z"/>
	<path class="st16" d="M143.11,270.42c-35.32-35.32-35.32-92.57,0-127.89s92.58-35.32,127.89,0s35.32,92.57,0,127.89   C235.69,305.74,178.43,305.74,143.11,270.42z"/>
	<path class="st16" d="M143.11,270.42c-35.32-35.32-35.32-92.57,0-127.89s92.58-35.32,127.89,0s35.32,92.57,0,127.89   C235.69,305.74,178.43,305.74,143.11,270.42z"/>
	<path class="st16" d="M143.11,270.42c-35.32-35.32-35.32-92.57,0-127.89s92.58-35.32,127.89,0s35.32,92.57,0,127.89   C235.69,305.74,178.43,305.74,143.11,270.42z"/>
	<path class="st16" d="M143.58,270.42c-35.32-35.32-35.32-92.57,0-127.89s92.58-35.32,127.89,0s35.32,92.57,0,127.89   C236.16,305.74,178.9,305.74,143.58,270.42z"/>
</g>
<circle class="st3" cx="206.3" cy="207.5" r="89.67"/>
</svg>